<?xml version="1.0" encoding="UTF-8"?>
<svg version="1.1" viewBox="0 0 1412 1412" width="353" height="353" xmlns="http://www.w3.org/2000/svg">
<path transform="translate(0)" d="m0 0h1412v1412h-1412z" fill="#FEFEFD"/>
<path transform="translate(322,236)" d="m0 0h164l15 3 16 6 11 6 14 11 10 11 9 14 6 14 4 16 1 29v134l-2 16-4 14-8 16-8 11-6 7h-2v2l-10 8-15 9-21 7-19 2h-148l-16-2-11-3-13-5-14-9-13-11-8-10-8-13-6-15-3-11-1-9v-156l2-17 5-16 8-15 13-16 10-9 18-11 18-6z" fill="#3662DF"/>
<path transform="translate(322,860)" d="m0 0h163l16 3 16 6 11 6 9 7 10 9 10 13 8 16 5 15 1 6 1 33v131l-2 15-4 14-8 16-8 11-6 7-11 9-11 7-13 6-14 4-6 1-35 1h-119l-16-1-17-4-13-5-14-9-13-11-12-16-8-16-4-12-2-14v-158l3-19 6-16 6-11 11-14 12-11 16-10 16-6z" fill="#3662DF"/>
<path transform="translate(945,236)" d="m0 0h164l20 4 16 7 14 9 13 12 10 14 8 16 5 19 1 84v80l-2 15-4 14-8 16-8 11-8 9-10 8-14 8-12 5-16 4-21 1h-139l-17-2-17-5-17-9-14-11-9-10-9-14-6-14-3-9-2-13v-156l2-18 5-15 8-16 11-14 8-8 13-9 14-7 17-5z" fill="#3662DF"/>
<path transform="translate(710,428)" d="m0 0h11l15 4 11 7 9 10 5 10 2 7 1 16v143l-2 20-6 23-8 18-9 15-9 12-10 11-11 9-16 11-16 8-16 6-17 4-7 1-23 1h-139l-12-2-10-4-11-8-9-12-4-11-1-5v-12l4-13 4-8 9-10 11-7 8-3 6-1 157-1 11-3 10-5 8-7 7-11 3-7 1-6 1-152 2-15 6-12 9-10 9-6 10-4z" fill="#3662DF"/>
<path transform="translate(991,860)" d="m0 0h163l16 5 10 7 7 8 7 14 2 8v12l-4 13-6 10-5 6-10 7-10 4-4 1-45 1-119 1-10 4-10 6-8 9-7 14-1 4-1 157-3 14-6 11-11 11-12 6-12 3h-8l-12-3-10-5-10-8-9-14-3-13v-154l2-20 5-20 9-21 8-14 9-12 11-12 9-8 16-11 14-8 18-7 21-5z" fill="#3662DF"/>
<path transform="translate(371,331)" d="m0 0h105l1 7-1 138h-144l-1-57v-81l1-6z" fill="#FEFEFD"/>
<path transform="translate(393,955)" d="m0 0h83v145h-143l-1-1-1-52v-70l1-21z" fill="#FEFEFD"/>
<path transform="translate(1019,331)" d="m0 0h80l1 1v144h-144l-1-54v-84l1-6z" fill="#FEFEFD"/>
<path transform="translate(903,668)" d="m0 0h56l15 3 11 6 8 8 6 10 4 10 1 6v10l-3 12-6 11-7 8-11 7-7 3-15 2h-47l-14-2-14-7-9-8-8-13-3-12v-11l3-12 7-13 9-9 14-7z" fill="#3662DF"/>
<path transform="translate(710,1052)" d="m0 0h11l15 4 11 7 9 10 5 10 2 7 1 12v49l-3 14-6 11-6 7-10 7-13 5-13 1-10-2-10-4-11-8-8-10-4-9-2-10v-56l3-14 5-10 9-10 9-6 10-4z" fill="#3662DF"/>
<path transform="translate(1142,668)" d="m0 0h11l13 3 11 6 8 8 6 10 4 10 1 6v10l-3 13-7 12-8 8-12 7-11 3h-14l-13-4-11-7-7-7-6-10-3-8-1-6v-11l3-12 6-12 10-10 14-7z" fill="#3662DF"/>
<path transform="translate(709,236)" d="m0 0h13l12 3 11 6 10 10 8 16 1 4v17l-3 10-5 9-9 10-10 6-11 4-12 1-12-2-14-7-9-8-7-11-3-9-1-6v-10l3-12 5-10 9-10 9-6 10-4z" fill="#3662DF"/>
<path transform="translate(710,860)" d="m0 0h11l15 4 10 6 7 7 6 10 4 10 1 7v9l-4 15-7 11-7 7-10 6-13 4h-14l-13-4-11-7-7-7-6-10-3-8-1-6v-11l3-12 7-13 9-9 14-7z" fill="#3662DF"/>
<path transform="translate(279,668)" d="m0 0h10l13 3 11 6 6 5 7 10 5 11 1 5v16l-3 10-5 9-9 10-11 7-10 3-12 1-12-2-14-7-8-7-9-14-3-12v-11l3-12 6-12 10-10 14-7z" fill="#3662DF"/>
<path transform="translate(1142,1100)" d="m0 0h11l15 4 11 7 9 10 6 13 2 9v10l-3 12-6 11-8 9-11 7-13 4h-13l-11-3-10-5-10-9-6-9-4-11-1-6v-10l3-12 5-10 9-10 9-6 10-4z" fill="#3662DF"/>
</svg>
