<?xml version="1.0" encoding="UTF-8"?>
<svg version="1.1" viewBox="0 0 1412 1412" width="1412" height="1412" xmlns="http://www.w3.org/2000/svg">
<path transform="translate(319,860)" d="m0 0h167l18 4 13 5 11 6 8 6 10 9 9 11 8 13 5 13 3 13 1 20v146l-2 15-5 16-6 11-7 11-12 13-14 10-16 8-13 4-19 2h-152l-18-3-19-7-16-10-13-12-11-15-8-17-4-14-1-9v-163l3-16 8-20 9-13 11-12 10-8 13-8 12-5zm13 95-1 6v91l1 48h144l1-143-1-2z" fill="#3763DE"/>
<path transform="translate(943,236)" d="m0 0h166l17 3 15 6 10 5 12 9 10 10 10 14 5 10 4 10 3 12 1 13v158l-3 16-7 17-10 16-11 12-12 9-14 8-11 4-16 3-62 1h-92l-20-2-15-4-16-8-8-5-12-10v-2l-3-1-9-12-8-15-5-15-2-14v-156l2-17 4-14 6-12 8-12 9-10 9-8 14-9 17-7zm58 95-45 1-1 3v107l1 34h144l1-1v-133l-1-11z" fill="#3763DE"/>
<path transform="translate(320,236)" d="m0 0h167l18 4 19 8 11 8 12 11 8 10 7 11 6 14 3 15 1 22v141l-2 16-3 11-4 10-8 14-12 14-11 9-15 9-17 6-12 2-72 1h-32l-63-1-17-3-13-5-16-10-13-11-11-14-8-16-4-10-2-8-1-9v-163l4-20 5-11 4-8 7-10 7-8 7-7 16-11 16-7 11-3zm12 95-1 4v94l1 47h144l1-1v-143l-1-1z" fill="#3763DE"/>
<path transform="translate(988,860)" d="m0 0h166l16 5 8 5 8 8 5 9 4 9 1 5v15l-4 12-7 11-10 9-10 5-8 2-33 1-130 1-11 4-11 7-7 8-7 14-1 5-1 156-2 11-3 8-6 8-5 6-13 8-13 4h-12l-13-4-14-9-7-8-6-12-2-10v-155l1-14 4-19 6-17 11-21 10-14 14-15 12-10 14-9 16-8 16-6 18-4z" fill="#3863DE"/>
<path transform="translate(709,428)" d="m0 0h13l12 3 12 7 7 7 6 9 4 11 1 10v151l-2 19-4 17-6 16-7 14-8 12-10 13h-2l-2 4-10 9-13 10-9 5-16 8-16 6-15 3-9 1h-168l-12-4-11-7-7-8-7-12-2-9v-15l3-10 5-9 9-10 5-4 14-6 3-1 20-1h137l12-2 12-6 8-7 8-13 2-6 1-7 1-156 3-12 5-9 9-10 10-7 8-3z" fill="#3763DE"/>
<path transform="translate(708,1052)" d="m0 0h14l16 5 8 5 8 8 6 10 3 9 1 9v54l-3 13-5 10-9 10-14 8-11 3h-12l-13-4-13-8-9-10-5-11-2-9v-60l4-14 6-10 9-9 14-7z" fill="#3864DE"/>
<path transform="translate(901,668)" d="m0 0h59l16 4 9 5 9 9 7 12 3 10v15l-4 13-7 11-10 9-13 6-6 1-50 1-15-1-12-4-11-7-8-9-6-12-2-9v-13l3-11 7-12 10-10 13-6z" fill="#3863DE"/>
<path transform="translate(1141,668)" d="m0 0h13l16 5 7 4 5 5 7 8 6 13 1 6v15l-3 10-7 12-9 9-14 7-7 2h-15l-13-4-10-6-9-9-5-9-3-8-1-7v-9l2-11 7-14 7-8 10-6 10-4z" fill="#3864DE"/>
<path transform="translate(1142,1100)" d="m0 0h11l13 3 11 6 9 9 6 10 4 13v14l-3 11-7 12-9 9-16 8-4 1h-17l-12-4-11-7-8-8-5-9-3-9-1-7v-9l2-10 6-12 7-9 12-8 9-3z" fill="#3863DE"/>
<path transform="translate(278,668)" d="m0 0h12l12 3 10 5 9 8 8 13 3 9v19l-4 12-7 10-7 7-10 6-5 2-16 2-12-2-12-5-9-7-7-9-5-10-2-9v-13l4-13 7-12 8-7 14-7z" fill="#3864DE"/>
<path transform="translate(707,236)" d="m0 0h15l12 3 11 6 7 6 6 8 5 12 1 4v17l-4 13-4 6-9 10-11 7-11 3h-19l-11-4-11-7-9-10-4-9-3-12v-11l4-14 6-10 5-6 14-9z" fill="#3863DE"/>
<path transform="translate(708,860)" d="m0 0h14l11 3 12 6 9 9 6 10 3 10 1 13-2 12-6 12-9 10-11 7-13 4h-14l-14-4-11-8-7-7-5-9-3-9-1-5v-12l4-14 7-11 8-8 13-7z" fill="#3864DE"/>
</svg>
